<svg xmlns="http://www.w3.org/2000/svg" width="30" height="30" viewBox="0 0 30 30" fill="none">
<g clip-path="url(#clip0_51_460)">
<path d="M15 2.5C8.1 2.5 2.5 8.1 2.5 15C2.5 21.9 8.1 27.5 15 27.5C21.9 27.5 27.5 21.9 27.5 15C27.5 8.1 21.9 2.5 15 2.5ZM15 6.25C17.075 6.25 18.75 7.925 18.75 10C18.75 12.075 17.075 13.75 15 13.75C12.925 13.75 11.25 12.075 11.25 10C11.25 7.925 12.925 6.25 15 6.25ZM15 24C11.875 24 9.1125 22.4 7.5 19.975C7.5375 17.4875 12.5 16.125 15 16.125C17.4875 16.125 22.4625 17.4875 22.5 19.975C20.8875 22.4 18.125 24 15 24Z" fill="#1D154A"/>
</g>
<defs>
<clipPath id="clip0_51_460">
<rect width="30" height="30" fill="white"/>
</clipPath>
</defs>
</svg>